<?xml version="1.0" encoding="UTF-8" standalone="no"?>
<svg
   viewBox="0 0 1000 100"
   fill="#1C1917"
   version="1.1"
   id="svg1"
   sodipodi:docname="shape-home.svg"
   inkscape:version="1.3.2 (091e20e, 2023-11-25, custom)"
   xmlns:inkscape="http://www.inkscape.org/namespaces/inkscape"
   xmlns:sodipodi="http://sodipodi.sourceforge.net/DTD/sodipodi-0.dtd"
   xmlns="http://www.w3.org/2000/svg"
   xmlns:svg="http://www.w3.org/2000/svg">
  <defs
     id="defs1" />
  <sodipodi:namedview
     id="namedview1"
     pagecolor="#ffffff"
     bordercolor="#000000"
     borderopacity="0.25"
     inkscape:showpageshadow="2"
     inkscape:pageopacity="0.0"
     inkscape:pagecheckerboard="0"
     inkscape:deskcolor="#d1d1d1"
     showgrid="false"
     inkscape:zoom="2.4399999"
     inkscape:cx="53.27869"
     inkscape:cy="-22.336066"
     inkscape:window-width="1920"
     inkscape:window-height="1027"
     inkscape:window-x="1912"
     inkscape:window-y="-8"
     inkscape:window-maximized="1"
     inkscape:current-layer="svg1" />
  <path
     d="m 1001.8548,103.25767 0.1618,-51.090601 -5.01902,2.153346 c -1.00245,0.0013 -11.01683,-3.205296 -12.02949,0.01604 -1.99472,-3.217323 -6.02494,3.228014 -6.01474,0.0081 -0.0136,4.293329 -12.01928,-3.203962 -12.02949,0.01604 0.0102,-3.219997 -15.04025,1.093377 -17.04177,0.02271 -2.01171,2.149337 -5.01568,1.080013 -6.01474,0.008 -0.007,2.146665 -6.00794,-2.138647 -6.01474,0.008 -0.007,2.146665 -1.99132,-4.290656 -4.00983,0.0054 -5.00549,-2.139984 -12.03968,3.236031 -16.03932,0.02138 -2.01171,2.149338 -4.02003,3.225341 -4.00982,0.0054 0.007,-2.146664 -6.01815,1.081351 -6.01475,0.0081 -0.98886,-4.291993 -15.04365,2.16671 -17.04177,0.02271 l -7.0172,0.0093 c 0.003,-1.07333 -3.01756,3.224006 -6.01473,0.0081 l -17.04178,0.02271 c -1.99811,-2.143992 -3.00397,-1.069325 -6.01474,0.008 l -6.01475,0.0081 c -1.00925,2.148 -21.055,1.101394 -24.05897,0.03208 -2.00151,-1.070659 -4.00302,-2.141319 -6.01473,0.0081 -0.003,1.07333 -22.04046,-4.263931 -24.05898,0.03207 0,0 -5.02248,3.226678 -5.01229,0.0067 -2.01171,2.149337 -10.01777,-2.133302 -12.02948,0.01604 -1.99812,-2.143992 -6.01134,-1.065315 -6.01474,0.008 -1.99472,-3.217325 -4.01663,2.152008 -6.01475,0.008 -1.00245,0.0013 -25.06823,2.180073 -25.05802,-1.039925 l -10.02798,1.086695 c -3.00397,-1.069323 -5.99435,-6.431976 -7.0172,0.0093 -0.98546,-5.365324 -4.01663,2.152009 -6.01474,0.0081 -2.01171,2.149337 -3.99963,-3.214652 -5.01228,0.0067 l -12.02949,0.01604 c -6.01134,-1.065316 -36.08166,-2.098559 -36.08846,0.04811 0.007,-2.146665 -3.00737,0.004 -6.01474,0.0081 l -6.01474,0.008 c -5.01908,2.153345 -7.00361,-4.283975 -11.02703,0.0147 -2.00492,0.0027 -15.03006,-2.12662 -17.04177,0.02271 l -13.03194,0.01738 c -3.02097,4.297338 -5.00889,-1.06665 -7.0172,0.0093 l -29.07127,0.03875 c -0.0102,3.219996 -6.01473,0.008 -6.01473,0.008 l -5.01229,0.0067 c 0.007,-2.146666 -16.04271,1.094713 -18.04423,0.02405 -0.98886,-4.291991 -9.02551,1.085359 -12.02948,0.01604 -3.00397,-1.069324 -6.02155,2.154682 -6.01475,0.008 -8.02645,2.157354 -2.99378,-4.289321 -13.03194,0.01738 l -10.02457,0.01336 c -2.99377,-4.28932 -19.04328,-1.047941 -19.04669,0.02539 -2.00491,0.0027 -21.04819,-1.045271 -23.05991,1.104067 -0.98886,-4.291993 -3.01077,1.07734 -6.01135,-1.065316 -0.99565,-2.145327 -11.03043,1.088032 -12.03288,1.089368 -2.99717,-3.215987 -9.02211,0.01202 -12.02608,-1.057297 -3.02098,4.297338 -6.01135,-1.065313 -6.01475,0.0081 l -6.01474,0.008 c -0.0102,3.219997 -5.00889,-1.066651 -6.01815,1.081349 0.0102,-3.219997 -2.00151,-1.070659 -4.00642,-1.067986 -2.99377,-4.28932 -10.02798,1.086695 -13.03195,0.01738 -3.01416,2.150672 -6.01814,1.08135 -6.01474,0.008 -1.99811,-2.143992 -2.00491,0.0027 -6.01474,0.0081 -1.00926,2.148002 -6.00794,-2.138646 -6.01475,0.008 -2.0049,0.0027 -3.99283,-5.361315 -6.01474,0.0081 l -18.04423,0.02405 c -1.99471,-3.217324 -4.00642,-1.067987 -6.01473,0.0081 l -6.01815,1.08135 c -3.00057,-2.142656 -12.01929,-3.203962 -17.03837,-1.050616 -14.02421,-3.201288 -18.04083,-1.049279 -24.05897,0.03208 -2.00831,1.076005 -2.99717,-3.215987 -5.01228,0.0067 -6.00795,-2.138646 -10.02798,1.086696 -16.03932,0.02138 -0.99226,-3.21866 -6.01475,0.008 -9.02212,0.01202 -0.007,2.146666 -3.00057,-2.142655 -5.01228,0.0067 -6.03514,6.448011 -7.99587,-7.502636 -13.03195,0.01738 -0.007,2.146664 -5.00549,-2.139984 -5.01228,0.0067 -2.99718,-3.215989 -10.02457,0.01336 -10.02457,0.01336 -0.99566,-2.145329 -5.01908,2.153345 -8.01966,0.01073 -3.01077,1.077342 -8.00946,-3.209306 -12.02949,0.01604 l -6.01474,0.008 c -2.00151,-1.070659 -10.01097,-4.279965 -12.02948,0.01604 l -6.01475,0.008 c -1.00585,1.074668 -5.00549,-2.139984 -6.01474,0.008 -0.99566,-2.145329 -4.01323,1.078676 -6.01474,0.0081 -0.007,2.146665 -5.00209,-3.213315 -6.01815,1.08135 -2.00151,-1.07066 -5.99774,-5.358644 -5.00888,-1.066651 -0.99906,-1.071997 -3.01417,2.150672 -6.01474,0.008 -2.00832,1.076005 -5.00209,-3.213315 -6.01475,0.0081 0.003,-1.07333 -6.00794,-2.138646 -6.01474,0.008 -1.99472,-3.217323 -4.02342,4.298674 -6.01474,0.008 -0.007,2.146667 -3.00058,-2.142655 -6.01474,0.0081 -3.00738,0.004 -6.00455,-3.211979 -6.01475,0.008 -5.00209,-3.213317 -8.02305,1.084021 -13.03194,0.01738 -3.02097,4.297338 -6.01135,-1.065315 -6.01474,0.008 l -5.01229,0.0067 c -0.003,1.07333 -9.01532,-2.134638 -12.029482,0.01604 -1.005862,1.074668 -9.01192,-3.207971 -11.027031,0.0147 l -6.014737,0.0081 c -1.99812,-2.143991 -3.996239,-4.287983 -7.017201,0.0093 -3.000572,-2.142656 -5.025887,4.30001 -5.015692,1.080014 -10.010966,-4.279966 -15.04365,2.166708 -18.037426,-2.122612 -0.003,1.07333 -6.00794,-2.138646 -6.021544,2.154683 0,0 -6.021544,2.154682 -6.011339,-1.065315 -0.982062,-6.438657 -12.022688,-2.130629 -12.029484,0.01604 -0.992258,-3.21866 -4.020027,3.225342 -7.010404,-2.13731 -2.011712,2.149338 -5.005487,-2.139982 -5.012284,0.0067 -0.985461,-5.365323 -4.026823,5.372007 -6.014747,0.0081 -2.0083146,1.076005 -4.0030256,-2.141319 -6.014738,0.008 -0.9922579,-3.21866 -1.0024629,0.0013 -5.01229459,0.0067 l -0.16184763,51.090617 z"
     id="path1"
     style="fill:#1c1917;fill-opacity:1;stroke-width:1.03729" />
</svg>
